<?xml version="1.0" encoding="UTF-8"?><svg id="Layer_1" xmlns="http://www.w3.org/2000/svg" viewBox="0 0 68.46 61.48"><defs><style>.cls-1{fill:#999;}.cls-2{fill:#c39347;}.cls-3{fill:#222;}</style></defs><g id="Group_540"><path id="Path_432" class="cls-3" d="M0,61.48H7.86V14.58l18.89,29.51c-2.68,4.19-5.36,8.37-8.04,12.56l6.58,4.06c9.89-15.38,19.79-30.75,29.68-46.12V61.48h7.87V0l-7.9,.05L31.23,36.23,7.9,.05l-7.9-.05V61.48Z"/><path id="Path_433" class="cls-1" d="M7.72,61.48l5.62-2.11V23.12L7.72,14.29V61.48Z"/><path id="Path_434" class="cls-1" d="M62.85,0l5.62,1.92V59.54c-1.87,.65-3.74,1.29-5.62,1.94V0Z"/><path id="Path_435" class="cls-2" d="M13.27,0L7.72,.05,31.09,36.54c.93-1.45,1.86-2.9,2.79-4.36C27.01,21.46,20.14,10.73,13.27,0Z"/><path id="Path_436" class="cls-2" d="M25.22,60.65l7.49-2.65L54.98,23.3V14.52c-9.92,15.38-19.84,30.75-29.76,46.13Z"/></g></svg>